# xmcd
#
# Track frame offsets: 
#        150
#        8328
#        25630
#        42246
#        60003
#        84599
#        103842
#        117509
#        130360
#        141930
#        157141
#        174374
#        193198
#        212260
#
# Disc length: 3053 seconds
#
# Revision: 5
# Processed by: cddbd v1.5.2PL0 Copyright (c) Steve Scherf et al.
# Submitted via: ExactAudioCopy v0.90b4
#
DISCID=b20beb0e
DTITLE=Mando Diao - Hurricane Bar
DYEAR=2004
DGENRE=Rock
TTITLE0=Cut the Rope
TTITLE1=God Knows
TTITLE2=Clean Town
TTITLE3=Down in the Past
TTITLE4=You Can't Steal My Love
TTITLE5=Added Family
TTITLE6=Annie's Angle
TTITLE7=If I Leave You
TTITLE8=Ringing Bells
TTITLE9=This Dream Is Over
TTITLE10=White Wall
TTITLE11=All My Senses
TTITLE12=Kingdom and Glory
TTITLE13=Next to Be Lowered
EXTD=
EXTT0=
EXTT1=
EXTT2=
EXTT3=
EXTT4=
EXTT5=
EXTT6=
EXTT7=
EXTT8=
EXTT9=
EXTT10=
EXTT11=
EXTT12=
EXTT13=
PLAYORDER=
